<?xml version="1.0" standalone="no"?>
<!DOCTYPE svg PUBLIC "-//W3C//DTD SVG 20010904//EN"
 "http://www.w3.org/TR/2001/REC-SVG-20010904/DTD/svg10.dtd">
<svg version="1.0" xmlns="http://www.w3.org/2000/svg"
 width="16.000000pt" height="16.000000pt" viewBox="0 0 16.000000 16.000000"
 preserveAspectRatio="xMidYMid meet">
<metadata>
Created by potrace 1.11, written by Peter Selinger 2001-2013
</metadata>
<g transform="translate(0.000000,16.000000) scale(0.001633,-0.001633)"
fill="#000000" stroke="none">
<path d="M4619 7845 c-2 -2 -49 -6 -104 -10 -55 -3 -111 -8 -125 -10 -14 -2
-52 -6 -85 -10 -72 -7 -111 -13 -185 -25 -30 -5 -71 -12 -90 -15 -288 -46
-782 -193 -1050 -312 -218 -98 -401 -188 -478 -237 -23 -14 -44 -26 -47 -26
-2 0 -33 -18 -69 -39 -516 -317 -888 -640 -1305 -1136 -100 -119 -299 -407
-409 -591 -74 -125 -174 -317 -231 -444 -24 -52 -49 -108 -57 -125 -105 -231
-247 -700 -300 -995 -4 -25 -8 -47 -9 -50 -1 -3 -5 -30 -10 -60 -5 -30 -9 -57
-10 -60 -1 -3 -5 -34 -9 -70 -5 -36 -10 -72 -11 -80 -2 -8 -6 -51 -10 -95 -4
-44 -9 -93 -11 -110 -2 -16 -6 -122 -9 -235 -4 -179 -2 -215 13 -272 62 -222
258 -364 491 -353 131 5 225 47 316 140 104 105 141 210 145 407 3 165 13 320
25 388 3 14 7 48 10 75 3 28 12 86 20 130 8 44 16 91 19 105 2 14 18 81 34
150 105 434 252 775 527 1223 28 46 138 198 204 282 211 269 535 579 791 758
399 279 745 447 1200 585 65 20 273 71 320 78 14 2 34 6 46 9 12 3 39 7 60 10
21 4 46 8 54 10 8 2 42 7 75 11 33 3 62 8 65 9 3 2 50 6 105 10 55 4 120 9
145 11 142 12 517 0 675 -22 22 -3 54 -7 70 -9 30 -3 221 -34 240 -39 6 -1 37
-8 70 -15 160 -33 357 -92 565 -168 105 -39 138 -47 211 -49 288 -10 516 222
496 504 -7 97 -11 114 -43 182 -36 73 -102 150 -166 192 -74 49 -311 139 -538
205 -97 28 -341 89 -391 97 -19 3 -45 8 -59 11 -14 3 -35 7 -47 9 -11 3 -43 8
-70 12 -26 3 -57 8 -68 10 -11 2 -40 6 -65 9 -25 3 -58 8 -75 10 -16 2 -61 7
-100 10 -38 4 -86 9 -105 12 -43 5 -646 14 -651 8z"/>
<path d="M7890 6627 c-47 -24 -179 -93 -295 -152 -115 -59 -264 -136 -330
-170 -66 -34 -205 -106 -310 -160 -104 -54 -244 -126 -310 -160 -66 -34 -214
-111 -330 -170 -115 -59 -277 -142 -360 -185 -82 -43 -222 -115 -310 -160 -88
-45 -223 -115 -300 -155 -273 -141 -678 -350 -985 -507 -237 -122 -314 -168
-408 -247 -295 -246 -466 -555 -519 -936 -10 -65 -10 -304 -1 -380 54 -454
324 -859 725 -1089 131 -75 338 -151 468 -170 22 -3 58 -9 80 -12 22 -4 92 -7
155 -8 395 -6 762 141 1045 419 127 124 209 240 306 429 79 155 142 278 301
586 42 80 115 222 163 315 48 94 125 242 170 330 45 88 122 237 170 330 48 94
118 229 155 300 64 123 121 235 340 660 51 99 125 243 165 320 438 847 445
861 445 899 0 51 -50 105 -105 113 -34 4 -53 -2 -125 -40z m-2855 -2598 c64
-16 112 -35 190 -76 16 -9 63 -50 105 -92 193 -194 237 -476 112 -726 -53
-108 -160 -214 -270 -269 -116 -59 -284 -82 -409 -57 -220 44 -409 218 -478
441 -23 76 -28 229 -9 310 79 340 425 555 759 469z"/>
<path d="M8585 5634 c-222 -59 -370 -258 -361 -488 3 -94 15 -132 74 -241 81
-150 222 -445 237 -495 4 -14 13 -38 21 -55 88 -198 201 -662 229 -945 4 -36
9 -76 11 -90 4 -23 7 -93 19 -361 6 -150 48 -248 146 -347 57 -58 161 -113
244 -130 162 -34 356 35 464 164 39 48 87 144 101 204 9 40 6 408 -4 510 -2
19 -7 64 -10 100 -66 642 -268 1285 -583 1859 -77 141 -135 211 -217 260 -106
64 -254 86 -371 55z"/>
</g>
</svg>
