<svg version="1" xmlns="http://www.w3.org/2000/svg" width="346.667" height="346.667" viewBox="0 0 260.000000 260.000000"><path d="M119.4 4.8c-5.5 2.6-12.5 5.8-15.5 7.1-3 1.4-10.5 4.8-16.8 7.8-6.2 2.9-11.4 5.3-11.6 5.3-.1 0-4.5 2-9.6 4.4-5.2 2.4-18.8 8.7-30.4 13.9-11.6 5.2-24.2 11-28 12.9L.4 59.5.7 73c.1 7.4.4 39.7.6 71.8.2 34 .7 58.6 1.3 59.1.5.5 11 5.2 23.4 10.6 38.5 16.6 45.3 19.6 50.8 22.1 2.9 1.3 5.5 2.4 5.7 2.4.2 0 2.8 1.1 5.7 2.4 13.2 6.1 40.4 17.6 41.4 17.6.9 0 83-35.2 96.9-41.5 1.7-.8 8.9-3.9 16-7 7.2-3.1 13.5-6.2 14.1-6.8.9-.9 1.3-21.1 1.7-72.9l.5-71.6-12.6-5.8c-7-3.1-16.5-7.5-21.2-9.7-4.7-2.1-20.6-9.4-35.5-16.2-14.8-6.8-34.4-15.7-43.5-19.9-9-4.2-16.4-7.6-16.5-7.5 0 0-4.5 2.1-10.1 4.7z"/></svg>