<?xml version="1.0" encoding="UTF-8"?>
<svg width="137px" height="157px" viewBox="0 0 137 157" version="1.1" xmlns="http://www.w3.org/2000/svg" xmlns:xlink="http://www.w3.org/1999/xlink">
    <!-- Generator: Sketch 45.2 (43514) - http://www.bohemiancoding.com/sketch -->
    <title>Group 7</title>
    <desc>Created with Sketch.</desc>
    <defs></defs>
    <g id="Page-1" stroke="none" stroke-width="1" fill="none" fill-rule="evenodd">
        <g id="Desktop-HD" transform="translate(-280.000000, -91.000000)" stroke="#000000" stroke-width="2">
            <g id="Group-7" transform="translate(280.000000, 92.000000)">
                <g id="Group-6" transform="translate(37.209553, 44.230624)">
                    <rect id="Rectangle" fill="#C0C0C0" x="25.1038675" y="56.5833204" width="16.7359117" height="15.9389635" rx="7.96948175"></rect>
                    <rect id="Rectangle" x="25.1038675" y="40.6443569" width="16.7359117" height="31.877927" rx="8.36795583"></rect>
                    <ellipse id="Oval-2" cx="7.13332122" cy="8.49187249" rx="7.13332122" ry="8.45266013"></ellipse>
                    <ellipse id="Oval-2" cx="56.5441081" cy="8.49187249" rx="7.13332122" ry="8.45266013"></ellipse>
                </g>
                <g id="Group-3" transform="translate(104.153200, 24.306919)">
                    <g id="Group-2" opacity="0.15">
                        <circle id="Oval-3" cx="23.5099712" cy="4.78168905" r="4.78168905"></circle>
                        <circle id="Oval-3" cx="6.18402737" cy="87.4727412" r="5.91734035"></circle>
                        <path d="M17.9273647,4.78676953 L27.4907428,4.78676953 M31.7298033,45.8808797 L15.3559856,45.6814024" id="Rectangle-3" transform="translate(23.542894, 25.333825) rotate(1.000000) translate(-23.542894, -25.333825) "></path>
                        <path d="M32.3773148,41.9096842 L15.2815455,40.8906896" id="Rectangle-3" transform="translate(23.904760, 41.448571) scale(-1, -1) rotate(22.000000) translate(-23.904760, -41.448571) "></path>
                    </g>
                    <path d="M9.95417882,92.0289515 C11.1452019,91.0121518 11.6838329,90.0751058 12.428838,88.4716053 L31.7324493,45.5493155 C29.7042393,18.4386904 28.2916602,4.84948157 28.2916602,4.78168905 C28.2916602,2.14083511 26.1508251,0 23.5099712,0 C20.8988581,0 18.776565,2.09288716 18.7290943,4.69265905 L15.6799854,42.4363836 L0.921994787,84.5789318 C0.478481657,85.4213837 0.227474032,86.3809632 0.227474032,87.3991686 C0.227474032,88.24909 0.402367459,89.0581627 0.718128684,89.7923613 L11.1452019,129.946555 L22.6920942,126.852575 L9.95417882,92.0289515 Z" id="Combined-Shape"></path>
                    <path d="M0.81308639,86.2481517 L11.5172613,89.2291905" id="Path-4" opacity="0.15"></path>
                </g>
                <g id="Group-3" transform="translate(16.724813, 89.306919) scale(-1, 1) translate(-16.724813, -89.306919) translate(0.224813, 24.306919)">
                    <g id="Group-2" opacity="0.15">
                        <circle id="Oval-3" cx="23.5099712" cy="4.78168905" r="4.78168905"></circle>
                        <circle id="Oval-3" cx="6.18402737" cy="87.4727412" r="5.91734035"></circle>
                        <path d="M17.9273647,4.78676953 L27.4907428,4.78676953 M31.7298033,45.8808797 L15.3559856,45.6814024" id="Rectangle-3" transform="translate(23.542894, 25.333825) rotate(1.000000) translate(-23.542894, -25.333825) "></path>
                        <path d="M32.3773148,41.9096842 L15.2815455,40.8906896" id="Rectangle-3" transform="translate(23.904760, 41.448571) scale(-1, -1) rotate(22.000000) translate(-23.904760, -41.448571) "></path>
                    </g>
                    <path d="M9.95417882,92.0289515 C11.1452019,91.0121518 11.6838329,90.0751058 12.428838,88.4716053 L31.7324493,45.5493155 C29.7042393,18.4386904 28.2916602,4.84948157 28.2916602,4.78168905 C28.2916602,2.14083511 26.1508251,0 23.5099712,0 C20.8988581,0 18.776565,2.09288716 18.7290943,4.69265905 L15.6799854,42.4363836 L0.921994787,84.5789318 C0.478481657,85.4213837 0.227474032,86.3809632 0.227474032,87.3991686 C0.227474032,88.24909 0.402367459,89.0581627 0.718128684,89.7923613 L11.1452019,129.946555 L22.6920942,126.852575 L9.95417882,92.0289515 Z" id="Combined-Shape"></path>
                    <path d="M0.81308639,86.2481517 L11.5172613,89.2291905" id="Path-4" opacity="0.15"></path>
                </g>
                <g id="Group-5" transform="translate(23.262960, 0.000000)">
                    <path d="M71.0013671,89.7312964 C83.2109097,82.1873286 91.2474928,69.353568 91.2474928,54.790187 C91.2474928,50.9669037 90.6936073,47.2628268 89.6557429,43.7423722 C89.5002809,19.5575168 69.8467334,0 45.625283,0 C21.4038326,0 1.75028508,19.5575168 1.59482503,43.7423657 C0.5569587,47.2628268 0.00307323695,50.9669037 0.00307323695,54.790187 C0.00307323695,71.3802731 10.4321122,85.7258382 25.5786391,92.5639196 C25.5015456,93.9664813 25.4620606,95.3893893 25.4620606,96.8292032 C25.4620606,120.046711 35.729246,138.868219 48.3944611,138.868219 C61.0596762,138.868219 71.3268616,120.046711 71.3268616,96.8292032 C71.3268616,94.41007 71.2153963,92.0386618 71.0013671,89.7312964 Z" id="Combined-Shape"></path>
                    <g id="Group-4" opacity="0.15">
                        <circle id="Oval-4" cx="45.625283" cy="44.0313867" r="44.0313867"></circle>
                        <ellipse id="Oval-4" cx="45.625283" cy="54.790187" rx="45.6222098" ry="42.0390162"></ellipse>
                        <ellipse id="Oval-5" cx="48.3944611" cy="96.8292032" rx="22.9324005" ry="42.0390162"></ellipse>
                    </g>
                </g>
            </g>
        </g>
    </g>
</svg>