
<svg width="348px" height="274px" viewBox="0 0 348 274" version="1.1" xmlns="http://www.w3.org/2000/svg" xmlns:xlink="http://www.w3.org/1999/xlink">
    <!-- Generator: Sketch 45.2 (43514) - http://www.bohemiancoding.com/sketch -->
    <desc>Created with Sketch.</desc>
    <defs></defs>
    <g id="Page-1" stroke="none" stroke-width="1" fill="none" fill-rule="evenodd">
        <g id="Desktop-HD" transform="translate(-198.000000, -29.000000)">
            <g id="Group-13" transform="translate(198.000000, 30.000000)">
                <g id="Group-7" transform="translate(76.000000, 0.000000)" stroke="#000000" stroke-width="2">
                    <g id="Group-6" transform="translate(52.039448, 61.858771)">
                        <rect id="Rectangle" fill="#C0C0C0" x="35.1090321" y="79.1346438" width="23.4060214" height="22.2914489" rx="11.1457245"></rect>
                        <rect id="Rectangle" x="35.1090321" y="56.8431948" width="23.4060214" height="44.5828979" rx="11.7030107"></rect>
                        <ellipse id="Oval-2" cx="9.97631156" cy="11.8763144" rx="9.97631156" ry="11.821474"></ellipse>
                        <ellipse id="Oval-2" cx="79.0798033" cy="11.8763144" rx="9.97631156" ry="11.821474"></ellipse>
                    </g>
                    <g id="Group-3" transform="translate(145.663534, 33.994460)">
                        <g id="Group-2" opacity="0.15">
                            <circle id="Oval-3" cx="32.8798872" cy="6.68743468" r="6.68743468"></circle>
                            <circle id="Oval-3" cx="8.64867597" cy="122.335066" r="8.27570063"></circle>
                            <path d="M25.0723288,6.69453999 L38.4471982,6.69453999 M44.3757394,64.1667376 L21.4761247,63.8877585" id="Rectangle-3" transform="translate(32.925932, 35.430639) rotate(1.000000) translate(-32.925932, -35.430639) "></path>
                            <path d="M45.2813171,58.6128193 L21.3720166,57.1877035" id="Rectangle-3" transform="translate(33.432020, 57.967929) scale(-1, -1) rotate(22.000000) translate(-33.432020, -57.967929) "></path>
                        </g>
                        <path d="M13.921424,128.707157 C15.5871301,127.285111 16.340433,125.974605 17.3823604,123.732028 L44.3794399,63.7030282 C41.5428854,25.7874438 39.5673219,6.78224596 39.5673219,6.68743468 C39.5673219,2.99406649 36.5732554,0 32.8798872,0 C29.2281131,0 26.2599786,2.92700886 26.1935884,6.56292172 L21.9292549,59.3494351 L1.28945648,118.287926 C0.669180868,119.466138 0.318133972,120.808159 0.318133972,122.232171 C0.318133972,123.420829 0.562731301,124.552358 1.00433939,125.579172 L15.5871301,181.736849 L31.7360448,177.409761 L13.921424,128.707157 Z" id="Combined-Shape"></path>
                        <path d="M1.13714256,120.622415 L16.1074741,124.791549" id="Path-4" opacity="0.15"></path>
                    </g>
                    <g id="Group-3" transform="translate(23.390499, 124.900257) scale(-1, 1) translate(-23.390499, -124.900257) translate(0.314412, 33.994460)">
                        <g id="Group-2" opacity="0.15">
                            <circle id="Oval-3" cx="32.8798872" cy="6.68743468" r="6.68743468"></circle>
                            <circle id="Oval-3" cx="8.64867597" cy="122.335066" r="8.27570063"></circle>
                            <path d="M25.0723288,6.69453999 L38.4471982,6.69453999 M44.3757394,64.1667376 L21.4761247,63.8877585" id="Rectangle-3" transform="translate(32.925932, 35.430639) rotate(1.000000) translate(-32.925932, -35.430639) "></path>
                            <path d="M45.2813171,58.6128193 L21.3720166,57.1877035" id="Rectangle-3" transform="translate(33.432020, 57.967929) scale(-1, -1) rotate(22.000000) translate(-33.432020, -57.967929) "></path>
                        </g>
                        <path d="M13.921424,128.707157 C15.5871301,127.285111 16.340433,125.974605 17.3823604,123.732028 L44.3794399,63.7030282 C41.5428854,25.7874438 39.5673219,6.78224596 39.5673219,6.68743468 C39.5673219,2.99406649 36.5732554,0 32.8798872,0 C29.2281131,0 26.2599786,2.92700886 26.1935884,6.56292172 L21.9292549,59.3494351 L1.28945648,118.287926 C0.669180868,119.466138 0.318133972,120.808159 0.318133972,122.232171 C0.318133972,123.420829 0.562731301,124.552358 1.00433939,125.579172 L15.5871301,181.736849 L31.7360448,177.409761 L13.921424,128.707157 Z" id="Combined-Shape"></path>
                        <path d="M1.13714256,120.622415 L16.1074741,124.791549" id="Path-4" opacity="0.15"></path>
                    </g>
                    <g id="Group-5" transform="translate(32.534430, 0.000000)">
                        <path d="M99.2990134,125.49377 C116.374678,114.943148 127.614247,96.9944828 127.614247,76.6268558 C127.614247,71.2798002 126.83961,66.0994607 125.388104,61.1759264 C125.170683,27.3521793 97.6841996,0 63.8092726,0 C29.9343456,0 2.44786246,27.3521793 2.2304437,61.1759173 C0.778934993,66.0994607 0.00429807776,71.2798002 0.00429807776,76.6268558 C0.00429807776,99.8289326 14.5898381,119.891933 35.7730242,129.455337 C35.6652051,131.416891 35.6099833,133.4069 35.6099833,135.420552 C35.6099833,167.891414 49.9691629,194.214249 67.6821086,194.214249 C85.3950544,194.214249 99.754234,167.891414 99.754234,135.420552 C99.754234,132.037272 99.5983441,128.720737 99.2990134,125.49377 Z" id="Combined-Shape"></path>
                        <g id="Group-4" opacity="0.15">
                            <circle id="Oval-4" cx="63.8092726" cy="61.5801277" r="61.5801277"></circle>
                            <ellipse id="Oval-4" cx="63.8092726" cy="76.6268558" rx="63.8049745" ry="58.7936966"></ellipse>
                            <ellipse id="Oval-5" cx="67.6821086" cy="135.420552" rx="32.0721254" ry="58.7936966"></ellipse>
                        </g>
                    </g>
                </g>
                <path d="M10.5097656,272 L0.170410156,272 L0.170410156,247.339355 L10.4072266,247.339355 C14.8847656,247.339355 17.7729492,249.749023 17.7729492,253.491699 C17.7729492,256.140625 15.8076172,258.447754 13.2783203,258.85791 L13.2783203,258.994629 C16.6279297,259.319336 18.9692383,261.729004 18.9692383,264.993164 C18.9692383,269.333984 15.7734375,272 10.5097656,272 Z M4.57958984,250.774414 L4.57958984,257.72998 L8.61279297,257.72998 C11.6889648,257.72998 13.4150391,256.431152 13.4150391,254.141113 C13.4150391,251.987793 11.9282227,250.774414 9.29638672,250.774414 L4.57958984,250.774414 Z M4.57958984,268.564941 L9.50146484,268.564941 C12.7485352,268.564941 14.4746094,267.214844 14.4746094,264.685547 C14.4746094,262.17334 12.6972656,260.857422 9.31347656,260.857422 L4.57958984,260.857422 L4.57958984,268.564941 Z M34.5229492,247.339355 L30.1137695,247.339355 L30.1137695,263.30127 C30.1137695,268.68457 34.0102539,272.410156 40.2480469,272.410156 C46.5029297,272.410156 50.3823242,268.68457 50.3823242,263.30127 L50.3823242,247.339355 L45.9902344,247.339355 L45.9902344,262.908203 C45.9902344,266.274902 43.9052734,268.564941 40.2480469,268.564941 C36.5908203,268.564941 34.5229492,266.274902 34.5229492,262.908203 L34.5229492,247.339355 Z M66.9956055,272 L66.9956055,254.705078 L67.1494141,254.705078 L79.402832,272 L83.1967773,272 L83.1967773,247.339355 L78.9584961,247.339355 L78.9584961,264.617188 L78.8046875,264.617188 L66.5683594,247.339355 L62.7402344,247.339355 L62.7402344,272 L66.9956055,272 Z M95.5546875,247.339355 L104.561035,247.339355 C111.926758,247.339355 116.284668,251.799805 116.284668,259.609863 C116.284668,267.419922 111.943848,272 104.561035,272 L95.5546875,272 L95.5546875,247.339355 Z M99.9638672,251.064941 L99.9638672,268.274414 L104.099609,268.274414 C109.055664,268.274414 111.790039,265.249512 111.790039,259.626953 C111.790039,254.106934 109.021484,251.064941 104.099609,251.064941 L99.9638672,251.064941 Z M143.374023,268.274414 L132.180176,268.274414 L132.180176,247.339355 L127.770996,247.339355 L127.770996,272 L143.374023,272 L143.374023,268.274414 Z M170.497559,268.274414 L158.944824,268.274414 L158.944824,261.233398 L169.865234,261.233398 L169.865234,257.72998 L158.944824,257.72998 L158.944824,251.064941 L170.497559,251.064941 L170.497559,247.339355 L154.535645,247.339355 L154.535645,272 L170.497559,272 L170.497559,268.274414 Z" id="BUNDLE" fill="#000000"></path>
                <path d="M184,247.410156 L193.587402,247.410156 C198.492188,247.410156 201.893066,250.742676 201.893066,255.664551 C201.893066,260.586426 198.389648,263.918945 193.399414,263.918945 L188.40918,263.918945 L188.40918,272.070801 L184,272.070801 L184,247.410156 Z M188.40918,251.016113 L188.40918,260.364258 L192.408203,260.364258 C195.569824,260.364258 197.415527,258.655273 197.415527,255.664551 C197.415527,252.708008 195.586914,251.016113 192.425293,251.016113 L188.40918,251.016113 Z M233.904297,272.070801 L233.904297,247.410156 L229.512207,247.410156 L229.512207,257.664062 L217.515137,257.664062 L217.515137,247.410156 L213.105957,247.410156 L213.105957,272.070801 L217.515137,272.070801 L217.515137,261.372559 L229.512207,261.372559 L229.512207,272.070801 L233.904297,272.070801 Z M257.114258,247 C264.291992,247 268.803711,251.904785 268.803711,259.749023 C268.803711,267.593262 264.291992,272.480957 257.114258,272.480957 C249.919434,272.480957 245.407715,267.593262 245.407715,259.749023 C245.407715,251.904785 249.919434,247 257.114258,247 Z M257.114258,250.759766 C252.705078,250.759766 249.919434,254.246094 249.919434,259.749023 C249.919434,265.234863 252.705078,268.721191 257.114258,268.721191 C261.506348,268.721191 264.309082,265.234863 264.309082,259.749023 C264.309082,254.246094 261.506348,250.759766 257.114258,250.759766 Z M290.646484,272.070801 L280.307129,272.070801 L280.307129,247.410156 L290.543945,247.410156 C295.021484,247.410156 297.909668,249.819824 297.909668,253.5625 C297.909668,256.211426 295.944336,258.518555 293.415039,258.928711 L293.415039,259.06543 C296.764648,259.390137 299.105957,261.799805 299.105957,265.063965 C299.105957,269.404785 295.910156,272.070801 290.646484,272.070801 Z M284.716309,250.845215 L284.716309,257.800781 L288.749512,257.800781 C291.825684,257.800781 293.551758,256.501953 293.551758,254.211914 C293.551758,252.058594 292.064941,250.845215 289.433105,250.845215 L284.716309,250.845215 Z M284.716309,268.635742 L289.638184,268.635742 C292.885254,268.635742 294.611328,267.285645 294.611328,264.756348 C294.611328,262.244141 292.833984,260.928223 289.450195,260.928223 L284.716309,260.928223 L284.716309,268.635742 Z M314.659668,272.070801 L314.659668,247.410156 L310.250488,247.410156 L310.250488,272.070801 L314.659668,272.070801 Z M343.116211,272.070801 L341.01416,265.696289 L331.939453,265.696289 L329.837402,272.070801 L325.291504,272.070801 L334.041504,247.410156 L339.014648,247.410156 L347.764648,272.070801 L343.116211,272.070801 Z M336.416992,251.768066 L332.964844,262.29541 L339.97168,262.29541 L336.536621,251.768066 L336.416992,251.768066 Z" id="PHOBIA" fill="#7C7C7C"></path>
            </g>
        </g>
    </g>
</svg>