<svg xmlns="http://www.w3.org/2000/svg" width="674" height="4" viewBox="37 361 674 4">
  <path fill="#66BFB3" fill-rule="evenodd"
        d="M708.536 361.733h-7.362c-.82 0-1.483.664-1.483 1.482 0 .82.67 1.483 1.49 1.483h7.36c.82 0 1.48-.664 1.48-1.483 0-.818-.66-1.482-1.48-1.482zm-14.724 0h-7.362c-.82 0-1.483.664-1.483 1.482 0 .82.664 1.483 1.483 1.483h7.362c.818 0 1.482-.664 1.482-1.483 0-.818-.664-1.482-1.482-1.482zm-14.724 0h-7.363c-.818 0-1.482.664-1.482 1.482 0 .82.664 1.483 1.482 1.483h7.363c.818 0 1.482-.664 1.482-1.483 0-.818-.664-1.482-1.482-1.482zm-14.725 0H657c-.817 0-1.48.664-1.48 1.482 0 .82.663 1.483 1.48 1.483h7.363c.82 0 1.483-.664 1.483-1.483 0-.818-.664-1.482-1.483-1.482zm-14.724 0h-7.37c-.82 0-1.48.664-1.48 1.482 0 .82.66 1.483 1.48 1.483h7.36c.82 0 1.48-.664 1.48-1.483 0-.818-.67-1.482-1.49-1.482zm-14.73 0h-7.36c-.82 0-1.48.664-1.48 1.482 0 .82.66 1.483 1.48 1.483h7.36c.82 0 1.48-.664 1.48-1.483 0-.818-.67-1.482-1.49-1.482zm-14.73 0h-7.36c-.82 0-1.49.664-1.49 1.482 0 .82.66 1.483 1.48 1.483h7.36c.82 0 1.48-.664 1.48-1.483 0-.818-.67-1.482-1.49-1.482zm-14.73 0h-7.36c-.82 0-1.48.664-1.48 1.482 0 .82.66 1.483 1.48 1.483h7.36c.82 0 1.48-.664 1.48-1.483 0-.818-.67-1.482-1.49-1.482zm-14.73 0h-7.37c-.82 0-1.48.664-1.48 1.482 0 .82.66 1.483 1.48 1.483h7.36c.82 0 1.48-.664 1.48-1.483 0-.818-.66-1.482-1.48-1.482zm-14.73 0h-7.37c-.82 0-1.48.664-1.48 1.482 0 .82.66 1.483 1.48 1.483H576c.817 0 1.48-.664 1.48-1.483 0-.818-.663-1.482-1.482-1.482zm-14.73 0h-7.36c-.82 0-1.48.664-1.48 1.482 0 .82.66 1.483 1.48 1.483h7.36c.82 0 1.48-.664 1.48-1.483 0-.818-.67-1.482-1.49-1.482zm-14.73 0h-7.36c-.82 0-1.48.664-1.48 1.482 0 .82.66 1.483 1.48 1.483h7.36c.82 0 1.48-.664 1.48-1.483 0-.818-.67-1.482-1.49-1.482zm-14.72 0h-7.37c-.82 0-1.48.664-1.48 1.482 0 .82.67 1.483 1.48 1.483h7.36c.82 0 1.482-.664 1.482-1.483 0-.818-.664-1.482-1.48-1.482zm-14.73 0h-7.36c-.82 0-1.48.664-1.48 1.482 0 .82.66 1.483 1.48 1.483h7.36c.82 0 1.48-.664 1.48-1.483 0-.818-.67-1.482-1.49-1.482zm-14.73 0H495c-.82 0-1.48.664-1.48 1.482 0 .82.66 1.483 1.48 1.483h7.364c.82 0 1.48-.664 1.48-1.483 0-.818-.66-1.482-1.48-1.482zm-14.73 0h-7.36c-.82 0-1.48.664-1.48 1.482 0 .82.66 1.483 1.48 1.483h7.36c.82 0 1.48-.664 1.48-1.483 0-.818-.668-1.482-1.487-1.482zm-14.72 0h-7.36c-.82 0-1.48.664-1.48 1.482 0 .82.66 1.483 1.48 1.483h7.36c.82 0 1.48-.664 1.48-1.483 0-.818-.668-1.482-1.487-1.482zm-14.72 0h-7.37c-.82 0-1.48.664-1.48 1.482 0 .82.66 1.483 1.48 1.483h7.36c.82 0 1.483-.664 1.483-1.483 0-.818-.666-1.482-1.485-1.482zm-14.73 0h-7.36c-.82 0-1.48.664-1.48 1.482 0 .82.66 1.483 1.48 1.483h7.36c.82 0 1.48-.664 1.48-1.483 0-.818-.66-1.482-1.48-1.482zm-14.73 0h-7.36c-.82 0-1.484.664-1.484 1.482 0 .82.66 1.483 1.48 1.483h7.362c.82 0 1.48-.664 1.48-1.483 0-.818-.66-1.482-1.48-1.482zm-14.725 0h-7.36c-.82 0-1.48.664-1.48 1.482 0 .82.66 1.483 1.48 1.483H414c.82 0 1.48-.664 1.48-1.483 0-.818-.66-1.482-1.48-1.482zm-14.72 0h-7.36c-.82 0-1.485.664-1.485 1.482 0 .82.66 1.483 1.48 1.483h7.36c.82 0 1.48-.664 1.48-1.483 0-.818-.665-1.482-1.48-1.482zm-14.72 0h-7.36c-.82 0-1.48.664-1.48 1.482 0 .82.66 1.483 1.48 1.483h7.36c.816 0 1.48-.664 1.48-1.483 0-.818-.667-1.482-1.485-1.482zm-14.727 0h-7.36c-.815 0-1.48.664-1.48 1.482 0 .82.665 1.483 1.484 1.483h7.36c.82 0 1.48-.664 1.48-1.483 0-.818-.66-1.482-1.48-1.482zm-14.724 0h-7.367c-.82 0-1.48.664-1.48 1.482 0 .82.66 1.483 1.48 1.483h7.362c.814 0 1.48-.664 1.48-1.483 0-.818-.666-1.482-1.48-1.482zm-14.73 0h-7.36c-.82 0-1.485.664-1.485 1.482 0 .82.66 1.483 1.48 1.483h7.365c.82 0 1.48-.664 1.48-1.483 0-.818-.662-1.482-1.48-1.482zm-14.724 0h-7.36c-.82 0-1.49.664-1.49 1.482 0 .82.66 1.483 1.48 1.483h7.36c.82 0 1.48-.664 1.48-1.483 0-.818-.664-1.482-1.48-1.482zm-14.728 0h-7.36c-.82 0-1.48.664-1.48 1.482 0 .82.66 1.483 1.48 1.483h7.363c.82 0 1.485-.664 1.485-1.483 0-.818-.665-1.482-1.483-1.482zm-14.72 0h-7.35c-.82 0-1.48.664-1.48 1.482 0 .82.662 1.483 1.48 1.483h7.37c.816 0 1.48-.664 1.48-1.483 0-.818-.665-1.482-1.483-1.482zm-14.72 0h-7.37c-.82 0-1.48.664-1.48 1.482 0 .82.67 1.483 1.487 1.483h7.37c.82 0 1.48-.664 1.48-1.483 0-.818-.66-1.482-1.48-1.482zm-14.73 0h-7.36c-.82 0-1.487.664-1.487 1.482 0 .82.666 1.483 1.485 1.483h7.36c.817 0 1.48-.664 1.48-1.483 0-.818-.664-1.482-1.48-1.482zm-14.727 0h-7.36c-.82 0-1.483.664-1.483 1.482 0 .82.66 1.483 1.48 1.483h7.36c.82 0 1.484-.664 1.484-1.483 0-.818-.66-1.482-1.48-1.482zm-14.722 0H230c-.82 0-1.484.664-1.484 1.482 0 .82.664 1.483 1.483 1.483h7.36c.82 0 1.48-.664 1.48-1.483 0-.818-.67-1.482-1.49-1.482zm-14.72 0h-7.36c-.82 0-1.48.664-1.48 1.482 0 .82.66 1.483 1.48 1.483h7.365c.82 0 1.48-.664 1.48-1.483 0-.818-.66-1.482-1.48-1.482zm-14.72 0h-7.36c-.82 0-1.482.664-1.482 1.482 0 .82.66 1.483 1.48 1.483h7.36c.816 0 1.48-.664 1.48-1.483 0-.818-.664-1.482-1.48-1.482zm-14.72 0h-7.36c-.82 0-1.485.664-1.485 1.482 0 .82.665 1.483 1.48 1.483h7.366c.814 0 1.48-.664 1.48-1.483 0-.818-.666-1.482-1.48-1.482zm-14.723 0h-7.36c-.82 0-1.486.664-1.486 1.482 0 .82.664 1.483 1.48 1.483h7.36c.82 0 1.48-.664 1.48-1.483 0-.818-.66-1.482-1.48-1.482zm-14.725 0h-7.36c-.82 0-1.485.664-1.485 1.482 0 .82.66 1.483 1.48 1.483h7.36c.82 0 1.48-.664 1.48-1.483 0-.818-.664-1.482-1.48-1.482zm-14.722 0h-7.36c-.82 0-1.48.664-1.48 1.482 0 .82.66 1.483 1.48 1.483H149c.817 0 1.48-.664 1.48-1.483 0-.818-.663-1.482-1.48-1.482zm-14.72 0h-7.36c-.82 0-1.486.664-1.486 1.482 0 .82.662 1.483 1.48 1.483h7.36c.815 0 1.48-.664 1.48-1.483 0-.818-.665-1.482-1.48-1.482zm-14.73 0h-7.36c-.82 0-1.48.664-1.48 1.482 0 .82.664 1.483 1.48 1.483h7.36c.82 0 1.48-.664 1.48-1.483 0-.818-.66-1.482-1.48-1.482zm-14.72 0h-7.36c-.82 0-1.483.664-1.483 1.482 0 .82.66 1.483 1.48 1.483h7.36c.82 0 1.48-.664 1.48-1.483 0-.818-.664-1.482-1.48-1.482zm-14.722 0h-7.36c-.82 0-1.48.664-1.48 1.482 0 .82.668 1.483 1.487 1.483h7.36c.82 0 1.48-.664 1.48-1.483 0-.818-.664-1.482-1.48-1.482zm-14.72 0h-7.35c-.82 0-1.48.664-1.48 1.482 0 .82.665 1.483 1.48 1.483h7.37c.82 0 1.48-.664 1.48-1.483 0-.818-.66-1.482-1.48-1.482zm-14.722 0H53.3c-.82 0-1.483.664-1.483 1.482 0 .82.663 1.483 1.482 1.483h7.36c.81 0 1.48-.664 1.48-1.483 0-.818-.67-1.482-1.48-1.482zm-14.72 0h-7.36c-.82 0-1.48.664-1.48 1.482 0 .82.66 1.483 1.48 1.483h7.36c.82 0 1.49-.664 1.49-1.483 0-.818-.666-1.482-1.48-1.482z"/>
</svg>
