<?xml version="1.0" encoding="UTF-8"?>
<svg width="31px" height="13px" viewBox="0 0 31 13" version="1.1" xmlns="http://www.w3.org/2000/svg" xmlns:xlink="http://www.w3.org/1999/xlink">
    <!-- Generator: Sketch 52.1 (67048) - http://www.bohemiancoding.com/sketch -->
    <title>npm</title>
    <desc>Created with Sketch.</desc>
    <g id="Page-1" stroke="none" stroke-width="1" fill="none" fill-rule="evenodd">
        <g id="Artboard-6" transform="translate(-656.000000, -115.000000)" fill="#90DD97" fill-rule="nonzero">
            <g id="Group-9" transform="translate(184.000000, 109.000000)">
                <g id="Group-4" transform="translate(472.000000, 4.000000)">
                    <g id="npm" transform="translate(0.000000, 2.000000)">
                        <path d="M0,0.431416667 L0,10.76475 L8.61025,10.76475 L8.61025,12.48525 L15.5,12.48525 L15.5,10.76475 L31,10.76475 L31,0.431416667 L0,0.431416667 Z M8.61025,9.03908333 L6.88975,9.03908333 L6.88975,3.87241667 L5.165375,3.87241667 L5.165375,9.03908333 L1.724375,9.03908333 L1.724375,2.15320833 L8.61025,2.15320833 L8.61025,9.03908333 Z M13.7769167,9.03908333 L13.7769167,10.76475 L10.334625,10.76475 L10.334625,2.15320833 L17.224375,2.15320833 L17.224375,9.040375 L13.7769167,9.040375 L13.7769167,9.03908333 Z M29.2782083,9.03908333 L27.5602917,9.03908333 L27.5602917,3.87241667 L25.834625,3.87241667 L25.834625,9.03908333 L24.11025,9.03908333 L24.11025,3.87241667 L22.3923333,3.87241667 L22.3923333,9.03908333 L18.9422917,9.03908333 L18.9422917,2.15320833 L29.2782083,2.15320833 L29.2782083,9.03908333 Z" id="Shape"></path>
                        <polygon id="Shape" points="13.775625 3.875 15.5 3.875 15.5 7.319875 13.775625 7.319875"></polygon>
                    </g>
                </g>
            </g>
        </g>
    </g>
</svg>