<?xml version="1.0" encoding="UTF-8"?>
<svg width="20px" height="18px" viewBox="0 0 20 18" version="1.1" xmlns="http://www.w3.org/2000/svg" xmlns:xlink="http://www.w3.org/1999/xlink">
    <!-- Generator: Sketch 52.1 (67048) - http://www.bohemiancoding.com/sketch -->
    <title>Dependencies</title>
    <desc>Created with Sketch.</desc>
    <g id="Page-1" stroke="none" stroke-width="1" fill="none" fill-rule="evenodd">
        <g id="Artboard-6" transform="translate(-514.000000, -242.000000)" fill-rule="nonzero">
            <g id="Group-12" transform="translate(155.000000, 171.000000)">
                <g id="Group-11" transform="translate(359.000000, 71.000000)">
                    <g id="Group-10">
                        <path d="M9.5625,9 C7.07721863,9 5.0625,6.98528137 5.0625,4.5 C5.0625,2.01471863 7.07721863,0 9.5625,0 C12.0477814,0 14.0625,2.01471863 14.0625,4.5 C14.0625,6.98528137 12.0477814,9 9.5625,9 Z M9.5625,7.875 C11.426461,7.875 12.9375,6.36396103 12.9375,4.5 C12.9375,2.63603897 11.426461,1.125 9.5625,1.125 C7.69853897,1.125 6.1875,2.63603897 6.1875,4.5 C6.1875,6.36396103 7.69853897,7.875 9.5625,7.875 Z" id="Oval-2" fill="#C8CDD3"></path>
                        <path d="M9.5625,18 C7.07721863,18 5.0625,15.9852814 5.0625,13.5 C5.0625,11.0147186 7.07721863,9 9.5625,9 C12.0477814,9 14.0625,11.0147186 14.0625,13.5 C14.0625,15.9852814 12.0477814,18 9.5625,18 Z M9.5625,16.875 C11.426461,16.875 12.9375,15.363961 12.9375,13.5 C12.9375,11.636039 11.426461,10.125 9.5625,10.125 C7.69853897,10.125 6.1875,11.636039 6.1875,13.5 C6.1875,15.363961 7.69853897,16.875 9.5625,16.875 Z" id="Oval-2" fill="#C8CDD3"></path>
                        <path d="M14.625,13.5 C12.1397186,13.5 10.125,11.4852814 10.125,9 C10.125,6.51471863 12.1397186,4.5 14.625,4.5 C17.1102814,4.5 19.125,6.51471863 19.125,9 C19.125,11.4852814 17.1102814,13.5 14.625,13.5 Z M14.625,12.375 C16.488961,12.375 18,10.863961 18,9 C18,7.13603897 16.488961,5.625 14.625,5.625 C12.761039,5.625 11.25,7.13603897 11.25,9 C11.25,10.863961 12.761039,12.375 14.625,12.375 Z" id="Oval-2" fill="#C8CDD3"></path>
                        <path d="M4.5,13.5 C2.01471863,13.5 0,11.4852814 0,9 C0,6.51471863 2.01471863,4.5 4.5,4.5 C6.98528137,4.5 9,6.51471863 9,9 C9,11.4852814 6.98528137,13.5 4.5,13.5 Z M4.5,12.375 C6.36396103,12.375 7.875,10.863961 7.875,9 C7.875,7.13603897 6.36396103,5.625 4.5,5.625 C2.63603897,5.625 1.125,7.13603897 1.125,9 C1.125,10.863961 2.63603897,12.375 4.5,12.375 Z" id="Oval-2" fill="#C8CDD3"></path>
                        <path d="M9.5625,13.5 C7.07721863,13.5 5.0625,11.4852814 5.0625,9 C5.0625,6.51471863 7.07721863,4.5 9.5625,4.5 C12.0477814,4.5 14.0625,6.51471863 14.0625,9 C14.0625,11.4852814 12.0477814,13.5 9.5625,13.5 Z M9.5625,12.375 C11.426461,12.375 12.9375,10.863961 12.9375,9 C12.9375,7.13603897 11.426461,5.625 9.5625,5.625 C7.69853897,5.625 6.1875,7.13603897 6.1875,9 C6.1875,10.863961 7.69853897,12.375 9.5625,12.375 Z" id="Oval-2" fill="#90DD97"></path>
                    </g>
                    <circle id="Oval" fill="#FFFFFF" cx="9.5625" cy="9" r="3.375"></circle>
                </g>
            </g>
        </g>
    </g>
</svg>
