<svg width="195" height="179" viewBox="0 0 195 179" xmlns="http://www.w3.org/2000/svg">
    <path d="M71.16.03c-.15.02-.3.06-.44.12L1.18 31.95c-1.12.5-1.48 2.17-.68 3.1l22.72 26.57L.5 88.14c-.8.93-.44 2.6.68 3.1l22.66 10.37v43.48c0 .76.5 1.5 1.18 1.8l71.47 31.8c.5.2 1.1.2 1.6 0l71.6-31.8c.7-.3 1.13-1.04 1.13-1.8V101.6l22.67-10.36c1.1-.5 1.5-2.17.7-3.1l-22.7-26.52 22.7-26.57c.8-.93.45-2.6-.67-3.1L124 .15c-.35-.15-.75-.2-1.12-.13-.43.08-.83.3-1.12.62L97.36 26.9 72.96.66c-.45-.5-1.15-.73-1.8-.62zm-.07 4.34L94 29.1 26.34 59.2 5.24 34.5 71.07 4.36zm52.5 0l65.9 30.13-21.1 24.7-67.7-30.1 22.9-24.73zM97.34 32L164 61.62 97.36 91.18l-66.6-29.56L97.36 32zM26.33 63.98L94 94.1l-22.9 24.7L5.2 88.7l21.1-24.72zm142.06 0l21.1 24.7-65.9 30.13-22.9-24.7L168.4 64zm-73.07 34.4v75.34L27.8 143.67V103.4l42.9 19.63c.76.3 1.7.1 2.25-.5l22.4-24.15zm3.98 0l22.4 24.15c.57.6 1.5.8 2.26.5l42.9-19.62v40.3l-67.56 30V98.4z"/>
</svg>