<svg width="23" height="21" viewBox="0 0 23 21" xmlns="http://www.w3.org/2000/svg">
    <g fill="#90DD97" >
        <path  class="tree-shake-icon-svg__bush" d="M11.95 15.89v.72A4.64 4.64 0 0 0 16 11.92c0-2.48-.53-5.27-1.41-7.44C13.69 2.27 12.56 1 11.5 1S9.31 2.26 8.41 4.46A20.82 20.82 0 0 0 7 11.92a4.64 4.64 0 0 0 4.05 4.69v-1.66L9.38 13.2a.49.49 0 0 1 0-.66.43.43 0 0 1 .64 0l1.03 1.08v-3.57c0-.26.2-.47.45-.47s.45.21.45.47v1.22l.58-.61a.43.43 0 0 1 .64 0 .49.49 0 0 1 0 .66l-1.22 1.28v1.96l1.03-1.08a.43.43 0 0 1 .63 0 .49.49 0 0 1 0 .66l-1.66 1.75zm.05 1.8l-.5-.05-.5.05v-.1l-.04-.01a5.6 5.6 0 0 1-4.9-5.66c0-2.62.55-5.54 1.48-7.84C8.57 1.56 9.94.02 11.5.02s2.93 1.54 3.96 4.08c.94 2.3 1.49 5.21 1.49 7.82a5.6 5.6 0 0 1-4.9 5.66H12v.1z"/>
        <path d="M11.03 16.61h.94v3.9a.48.48 0 0 1-.47.49.48.48 0 0 1-.47-.49v-3.9z"/>
    </g>
    <path fill="#C8CDD3" class="tree-shake-icon-svg__shake"
          d="M19.95 16L21 13.89l-.95-1.97L21 10l-.95-1.92.95-1.97L19.95 4l-.85.43.85 1.68L19 8.08l.95 1.92-.95 1.92.95 1.97-.86 1.68zm2 0L23 13.89l-.95-1.97L23 10l-.95-1.92.95-1.97-.46-.92L21.95 4l-.85.43.85 1.68L21 8.08l.95 1.92-.95 1.92.95 1.97-.86 1.68zm-20.9 0L0 13.89l.95-1.97L0 10l.95-1.92L0 6.11 1.05 4l.85.43-.85 1.68L2 8.08 1.05 10 2 11.92l-.95 1.97.85 1.68zm1.97 0L2 13.89l.93-1.97L2 10l.93-1.92L2 6.11 3.02 4l.84.43-.79 1.68L4 8.08 3.07 10 4 11.92l-.93 1.97.79 1.68z"/>
</svg>
